<svg width="162" height="176" viewBox="0 0 162 176" fill="none" xmlns="http://www.w3.org/2000/svg">
<path d="M82.6094 111.906C82.4219 109.281 81.3281 106.969 79.3281 104.969C77.3281 102.906 74.1094 100.688 69.6719 98.3125C64.5469 95.8125 60.6406 92.9688 57.9531 89.7812C55.2656 86.5312 53.9531 82.5 54.0156 77.6875C54.1406 72.9375 56.0156 68.9688 59.6406 65.7812C63.2656 62.5938 68.1406 61 74.2656 61C77.5781 61 80.5781 61.25 83.2656 61.75C85.9531 62.25 88.6094 62.9688 91.2344 63.9062V73.75C87.6719 71.875 84.5156 70.625 81.7656 70C79.0156 69.375 76.6406 69.0625 74.6406 69.0625C72.6406 69.0625 70.7344 69.8438 68.9219 71.4062C67.1094 72.9062 66.2031 75.125 66.2031 78.0625C66.2031 80.6875 67.2969 83.0312 69.4844 85.0938C71.7344 87.0938 75.2969 89.4062 80.1719 92.0312C85.1094 94.6562 88.7969 97.5938 91.2344 100.844C93.7344 104.031 94.9844 107.781 94.9844 112.094C94.9844 117.406 93.0781 121.969 89.2656 125.781C85.5156 129.594 79.9531 131.688 72.5781 132.062C69.8281 132.188 66.9219 131.938 63.8594 131.312C60.7969 130.625 58.2969 129.656 56.3594 128.406C55.1094 127.656 54.2969 126.75 53.9219 125.688C53.5469 124.625 53.5469 123.469 53.9219 122.219C54.4844 120.969 55.5156 120.156 57.0156 119.781C58.5156 119.344 60.2344 119.719 62.1719 120.906C63.4844 121.531 65.1406 122.125 67.1406 122.688C69.1406 123.188 70.8594 123.406 72.2969 123.344C75.7969 123.031 78.4844 121.844 80.3594 119.781C82.2344 117.719 82.9844 115.094 82.6094 111.906Z" fill="white"/>
<circle cx="54" cy="27" r="12" fill="white"/>
<circle cx="30" cy="63" r="12" fill="white"/>
<circle cx="88" cy="39" r="12" fill="white"/>
<path d="M111.191 101H102.473V84.1953H104.441V99.2188H111.191V101ZM114.496 85.9531C114.152 85.9531 113.859 85.8359 113.617 85.6016C113.375 85.3672 113.254 85.0703 113.254 84.7109C113.254 84.3516 113.375 84.0547 113.617 83.8203C113.859 83.5781 114.152 83.457 114.496 83.457C114.848 83.457 115.145 83.5781 115.387 83.8203C115.637 84.0547 115.762 84.3516 115.762 84.7109C115.762 85.0547 115.637 85.3477 115.387 85.5898C115.145 85.832 114.848 85.9531 114.496 85.9531ZM115.434 101H113.512V89H115.434V101ZM129.285 101H127.363V94.1562C127.363 91.6094 126.434 90.3359 124.574 90.3359C123.613 90.3359 122.816 90.6992 122.184 91.4258C121.559 92.1445 121.246 93.0547 121.246 94.1562V101H119.324V89H121.246V90.9922H121.293C122.199 89.4766 123.512 88.7188 125.23 88.7188C126.543 88.7188 127.547 89.1445 128.242 89.9961C128.938 90.8398 129.285 92.0625 129.285 93.6641V101ZM142.562 95.4805H134.09C134.121 96.8164 134.48 97.8477 135.168 98.5742C135.855 99.3008 136.801 99.6641 138.004 99.6641C139.355 99.6641 140.598 99.2188 141.73 98.3281V100.133C140.676 100.898 139.281 101.281 137.547 101.281C135.852 101.281 134.52 100.738 133.551 99.6523C132.582 98.5586 132.098 97.0234 132.098 95.0469C132.098 93.1797 132.625 91.6602 133.68 90.4883C134.742 89.3086 136.059 88.7188 137.629 88.7188C139.199 88.7188 140.414 89.2266 141.273 90.2422C142.133 91.2578 142.562 92.668 142.562 94.4727V95.4805ZM140.594 93.8516C140.586 92.7422 140.316 91.8789 139.785 91.2617C139.262 90.6445 138.531 90.3359 137.594 90.3359C136.688 90.3359 135.918 90.6602 135.285 91.3086C134.652 91.957 134.262 92.8047 134.113 93.8516H140.594ZM144.754 100.566V98.5039C145.801 99.2773 146.953 99.6641 148.211 99.6641C149.898 99.6641 150.742 99.1016 150.742 97.9766C150.742 97.6562 150.668 97.3867 150.52 97.168C150.379 96.9414 150.184 96.7422 149.934 96.5703C149.691 96.3984 149.402 96.2461 149.066 96.1133C148.738 95.9727 148.383 95.8281 148 95.6797C147.469 95.4688 147 95.2578 146.594 95.0469C146.195 94.8281 145.859 94.5859 145.586 94.3203C145.32 94.0469 145.117 93.7383 144.977 93.3945C144.844 93.0508 144.777 92.6484 144.777 92.1875C144.777 91.625 144.906 91.1289 145.164 90.6992C145.422 90.2617 145.766 89.8984 146.195 89.6094C146.625 89.3125 147.113 89.0898 147.66 88.9414C148.215 88.793 148.785 88.7188 149.371 88.7188C150.41 88.7188 151.34 88.8984 152.16 89.2578V91.2031C151.277 90.625 150.262 90.3359 149.113 90.3359C148.754 90.3359 148.43 90.3789 148.141 90.4648C147.852 90.543 147.602 90.6562 147.391 90.8047C147.188 90.9531 147.027 91.1328 146.91 91.3438C146.801 91.5469 146.746 91.7734 146.746 92.0234C146.746 92.3359 146.801 92.5977 146.91 92.8086C147.027 93.0195 147.195 93.207 147.414 93.3711C147.633 93.5352 147.898 93.6836 148.211 93.8164C148.523 93.9492 148.879 94.0938 149.277 94.25C149.809 94.4531 150.285 94.6641 150.707 94.8828C151.129 95.0938 151.488 95.3359 151.785 95.6094C152.082 95.875 152.309 96.1836 152.465 96.5352C152.629 96.8867 152.711 97.3047 152.711 97.7891C152.711 98.3828 152.578 98.8984 152.312 99.3359C152.055 99.7734 151.707 100.137 151.27 100.426C150.832 100.715 150.328 100.93 149.758 101.07C149.188 101.211 148.59 101.281 147.965 101.281C146.73 101.281 145.66 101.043 144.754 100.566Z" fill="white"/>
</svg>
